<?xml version="1.0" encoding="UTF-8" standalone="no"?>
<!DOCTYPE svg PUBLIC "-//W3C//DTD SVG 1.1//EN"
 "http://www.w3.org/Graphics/SVG/1.1/DTD/svg11.dtd">
<!-- Generated by graphviz version 7.0.2 (20221119.0110)
 -->
<!-- Title: G Pages: 1 -->
<svg width="7758pt" height="218pt"
 viewBox="0.00 0.00 7758.20 218.00" xmlns="http://www.w3.org/2000/svg" xmlns:xlink="http://www.w3.org/1999/xlink">
<g id="graph0" class="graph" transform="scale(1 1) rotate(0) translate(4 214)">
<title>G</title>
<polygon fill="white" stroke="none" points="-4,4 -4,-214 7754.2,-214 7754.2,4 -4,4"/>
<!-- 0 -->
<g id="node1" class="node">
<title>0</title>
<polygon fill="none" stroke="black" points="3671.42,-123 3594.42,-123 3594.42,-87 3671.42,-87 3671.42,-123"/>
<text text-anchor="middle" x="3632.92" y="-101.3" font-family="Times,serif" font-size="14.00">110899 cat</text>
</g>
<!-- 1 -->
<g id="node2" class="node">
<title>1</title>
<ellipse fill="none" stroke="black" cx="3732.92" cy="-18" rx="124.28" ry="18"/>
<text text-anchor="middle" x="3732.92" y="-14.3" font-family="Times,serif" font-size="14.00">/home/pavan/Downloads/test.sh</text>
</g>
<!-- 0&#45;&gt;1 -->
<g id="edge1" class="edge">
<title>0&#45;&gt;1</title>
<path fill="none" stroke="black" d="M3637.81,-86.92C3641.58,-76.33 3647.73,-63.05 3656.92,-54 3662.28,-48.73 3668.57,-44.16 3675.21,-40.22"/>
<polygon fill="black" stroke="black" points="3676.62,-43.43 3683.77,-35.61 3673.31,-37.27 3676.62,-43.43"/>
<text text-anchor="middle" x="3692.92" y="-57.8" font-family="Times,serif" font-size="14.00">19059,19062</text>
</g>
<!-- 2 -->
<g id="node3" class="node">
<title>2</title>
<polygon fill="none" stroke="black" points="3775.92,-123 3689.92,-123 3689.92,-87 3775.92,-87 3775.92,-123"/>
<text text-anchor="middle" x="3732.92" y="-101.3" font-family="Times,serif" font-size="14.00">110907 bash</text>
</g>
<!-- 2&#45;&gt;1 -->
<g id="edge2" class="edge">
<title>2&#45;&gt;1</title>
<path fill="none" stroke="black" d="M3732.92,-86.8C3732.92,-75.58 3732.92,-60.67 3732.92,-47.69"/>
<polygon fill="black" stroke="black" points="3736.42,-47.98 3732.92,-37.98 3729.42,-47.98 3736.42,-47.98"/>
<text text-anchor="middle" x="3768.92" y="-57.8" font-family="Times,serif" font-size="14.00">23599,23608</text>
</g>
<!-- 3 -->
<g id="node4" class="node">
<title>3</title>
<polygon fill="none" stroke="black" points="3949.42,-123 3794.42,-123 3794.42,-87 3949.42,-87 3949.42,-123"/>
<text text-anchor="middle" x="3871.92" y="-101.3" font-family="Times,serif" font-size="14.00">104515 ThreadPoolForeg</text>
</g>
<!-- 3&#45;&gt;1 -->
<g id="edge3" class="edge">
<title>3&#45;&gt;1</title>
<path fill="none" stroke="black" d="M3852.68,-86.73C3840.64,-76.45 3824.51,-63.58 3808.92,-54 3801,-49.13 3792.3,-44.51 3783.69,-40.32"/>
<polygon fill="black" stroke="black" points="3785.21,-37.16 3774.67,-36.07 3782.22,-43.5 3785.21,-37.16"/>
<text text-anchor="middle" x="3865.92" y="-57.8" font-family="Times,serif" font-size="14.00">42995,42996</text>
</g>
<!-- 4 -->
<g id="node5" class="node">
<title>4</title>
<ellipse fill="none" stroke="black" cx="313.92" cy="-192" rx="313.84" ry="18"/>
<text text-anchor="middle" x="313.92" y="-188.3" font-family="Times,serif" font-size="14.00">/home/pavan/.config/google&#45;chrome/Profile 1/Sessions/Session_13314079061526100</text>
</g>
<!-- 4&#45;&gt;3 -->
<g id="edge4" class="edge">
<title>4&#45;&gt;3</title>
<path fill="none" stroke="black" d="M532.37,-178.7C567.33,-176.96 603.12,-175.32 636.92,-174 1210.01,-151.59 1353.49,-151.11 1926.92,-141 2130.02,-137.42 3533.24,-143.68 3782.91,-122.95"/>
<polygon fill="black" stroke="black" points="3783.09,-126.45 3792.73,-122.05 3782.45,-119.48 3783.09,-126.45"/>
<text text-anchor="middle" x="1959.42" y="-144.8" font-family="Times,serif" font-size="14.00">1842,43160</text>
</g>
<!-- 5 -->
<g id="node6" class="node">
<title>5</title>
<ellipse fill="none" stroke="black" cx="1082.92" cy="-192" rx="436.52" ry="18"/>
<text text-anchor="middle" x="1082.92" y="-188.3" font-family="Times,serif" font-size="14.00">/home/pavan/.config/google&#45;chrome/Profile 1/Local Extension Settings/kbfnbcaeplbcioakkpcpgfkobkghlhen/000003.log</text>
</g>
<!-- 5&#45;&gt;3 -->
<g id="edge5" class="edge">
<title>5&#45;&gt;3</title>
<path fill="none" stroke="black" d="M1394.23,-179.02C1439.42,-177.32 1485.37,-175.6 1528.92,-174 1943.57,-158.76 2047.12,-151.16 2461.92,-141 2752.27,-133.89 3474.54,-152.84 3782.99,-123.02"/>
<polygon fill="black" stroke="black" points="3783.13,-126.53 3792.73,-122.05 3782.43,-119.56 3783.13,-126.53"/>
<text text-anchor="middle" x="2494.42" y="-144.8" font-family="Times,serif" font-size="14.00">2064,42572</text>
</g>
<!-- 6 -->
<g id="node7" class="node">
<title>6</title>
<ellipse fill="none" stroke="black" cx="1810.92" cy="-192" rx="272.95" ry="18"/>
<text text-anchor="middle" x="1810.92" y="-188.3" font-family="Times,serif" font-size="14.00">/home/pavan/.config/google&#45;chrome/Profile 1/Extension State/000004.log</text>
</g>
<!-- 6&#45;&gt;3 -->
<g id="edge6" class="edge">
<title>6&#45;&gt;3</title>
<path fill="none" stroke="black" d="M2002.4,-178.81C2032.68,-177.07 2063.65,-175.4 2092.92,-174 2509.59,-154.11 2613.96,-153.31 3030.92,-141 3194.93,-136.16 3600.78,-140.93 3782.83,-123.04"/>
<polygon fill="black" stroke="black" points="3783.14,-126.53 3792.73,-122.01 3782.42,-119.56 3783.14,-126.53"/>
<text text-anchor="middle" x="3063.42" y="-144.8" font-family="Times,serif" font-size="14.00">2878,23692</text>
</g>
<!-- 7 -->
<g id="node8" class="node">
<title>7</title>
<ellipse fill="none" stroke="black" cx="2378.92" cy="-192" rx="276.75" ry="18"/>
<text text-anchor="middle" x="2378.92" y="-188.3" font-family="Times,serif" font-size="14.00">/home/pavan/.config/google&#45;chrome/Profile 1/shared_proto_db/000003.log</text>
</g>
<!-- 7&#45;&gt;3 -->
<g id="edge7" class="edge">
<title>7&#45;&gt;3</title>
<path fill="none" stroke="black" d="M2575.44,-178.96C2605.41,-177.23 2635.99,-175.52 2664.92,-174 2724.88,-170.85 3652.32,-133.28 3782.98,-122.83"/>
<polygon fill="black" stroke="black" points="3783.09,-126.33 3792.72,-121.91 3782.43,-119.36 3783.09,-126.33"/>
<text text-anchor="middle" x="3441.92" y="-144.8" font-family="Times,serif" font-size="14.00">4510,9886</text>
</g>
<!-- 8 -->
<g id="node9" class="node">
<title>8</title>
<ellipse fill="none" stroke="black" cx="2980.92" cy="-192" rx="307.35" ry="18"/>
<text text-anchor="middle" x="2980.92" y="-188.3" font-family="Times,serif" font-size="14.00">/home/pavan/.config/google&#45;chrome/Profile 1/Service Worker/Database/000003.log</text>
</g>
<!-- 8&#45;&gt;3 -->
<g id="edge8" class="edge">
<title>8&#45;&gt;3</title>
<path fill="none" stroke="black" d="M3199.18,-178.97C3358.37,-168.66 3579.41,-151.19 3782.99,-123.18"/>
<polygon fill="black" stroke="black" points="3783.28,-126.67 3792.71,-121.83 3782.32,-119.74 3783.28,-126.67"/>
<text text-anchor="middle" x="3660.92" y="-144.8" font-family="Times,serif" font-size="14.00">6386,6389</text>
</g>
<!-- 9 -->
<g id="node10" class="node">
<title>9</title>
<ellipse fill="none" stroke="black" cx="3590.92" cy="-192" rx="284.85" ry="18"/>
<text text-anchor="middle" x="3590.92" y="-188.3" font-family="Times,serif" font-size="14.00">/home/pavan/.config/google&#45;chrome/Profile 1/.com.google.Chrome.MZ2h0k</text>
</g>
<!-- 9&#45;&gt;3 -->
<g id="edge9" class="edge">
<title>9&#45;&gt;3</title>
<path fill="none" stroke="black" d="M3647.45,-173.9C3692.5,-160.27 3755.75,-141.14 3803.63,-126.66"/>
<polygon fill="black" stroke="black" points="3804.52,-130.05 3813.07,-123.8 3802.49,-123.35 3804.52,-130.05"/>
<text text-anchor="middle" x="3777.92" y="-144.8" font-family="Times,serif" font-size="14.00">8475,8476</text>
</g>
<!-- 10 -->
<g id="node11" class="node">
<title>10</title>
<ellipse fill="none" stroke="black" cx="4152.92" cy="-192" rx="259.15" ry="18"/>
<text text-anchor="middle" x="4152.92" y="-188.3" font-family="Times,serif" font-size="14.00">/home/pavan/.config/google&#45;chrome/Profile 1/GCM Store/000003.log</text>
</g>
<!-- 10&#45;&gt;3 -->
<g id="edge10" class="edge">
<title>10&#45;&gt;3</title>
<path fill="none" stroke="black" d="M4096.73,-174C4051.71,-160.38 3988.36,-141.22 3940.38,-126.71"/>
<polygon fill="black" stroke="black" points="3941.49,-123.39 3930.91,-123.84 3939.47,-130.09 3941.49,-123.39"/>
<text text-anchor="middle" x="4065.92" y="-144.8" font-family="Times,serif" font-size="14.00">10903,10908</text>
</g>
<!-- 11 -->
<g id="node12" class="node">
<title>11</title>
<ellipse fill="none" stroke="black" cx="4753.92" cy="-192" rx="323.84" ry="18"/>
<text text-anchor="middle" x="4753.92" y="-188.3" font-family="Times,serif" font-size="14.00">/home/pavan/.config/google&#45;chrome/Profile 1/Sync Data/.com.google.Chrome.eubQCV</text>
</g>
<!-- 11&#45;&gt;3 -->
<g id="edge11" class="edge">
<title>11&#45;&gt;3</title>
<path fill="none" stroke="black" d="M4596.49,-175.83C4411.22,-157.97 4109.99,-128.94 3961.07,-114.59"/>
<polygon fill="black" stroke="black" points="3961.55,-111.12 3951.26,-113.65 3960.88,-118.09 3961.55,-111.12"/>
<text text-anchor="middle" x="4401.92" y="-144.8" font-family="Times,serif" font-size="14.00">11115,11116</text>
</g>
<!-- 12 -->
<g id="node13" class="node">
<title>12</title>
<ellipse fill="none" stroke="black" cx="5384.92" cy="-192" rx="289.45" ry="18"/>
<text text-anchor="middle" x="5384.92" y="-188.3" font-family="Times,serif" font-size="14.00">/home/pavan/.config/google&#45;chrome/Profile 1/Sync Data/LevelDB/000025.log</text>
</g>
<!-- 12&#45;&gt;3 -->
<g id="edge12" class="edge">
<title>12&#45;&gt;3</title>
<path fill="none" stroke="black" d="M5177.32,-179.13C5147,-177.4 5116.15,-175.65 5086.92,-174 4665.59,-150.19 4162.05,-122.14 3961.11,-110.96"/>
<polygon fill="black" stroke="black" points="3961.44,-107.47 3951.26,-110.41 3961.05,-114.46 3961.44,-107.47"/>
<text text-anchor="middle" x="4789.92" y="-144.8" font-family="Times,serif" font-size="14.00">11121,23700</text>
</g>
<!-- 13 -->
<g id="node14" class="node">
<title>13</title>
<ellipse fill="none" stroke="black" cx="5973.92" cy="-192" rx="282.15" ry="18"/>
<text text-anchor="middle" x="5973.92" y="-188.3" font-family="Times,serif" font-size="14.00">/home/pavan/.config/google&#45;chrome/Profile 1/.com.google.Chrome.XhA1j7</text>
</g>
<!-- 13&#45;&gt;3 -->
<g id="edge13" class="edge">
<title>13&#45;&gt;3</title>
<path fill="none" stroke="black" d="M5775.15,-178.86C5744.28,-177.13 5712.75,-175.45 5682.92,-174 5021.8,-141.9 4224.28,-116.64 3961,-108.65"/>
<polygon fill="black" stroke="black" points="3961.23,-105.16 3951.13,-108.35 3961.02,-112.15 3961.23,-105.16"/>
<text text-anchor="middle" x="5271.92" y="-144.8" font-family="Times,serif" font-size="14.00">12063,12064</text>
</g>
<!-- 14 -->
<g id="node15" class="node">
<title>14</title>
<ellipse fill="none" stroke="black" cx="6715.92" cy="-192" rx="441.92" ry="18"/>
<text text-anchor="middle" x="6715.92" y="-188.3" font-family="Times,serif" font-size="14.00">/home/pavan/.config/google&#45;chrome/Profile 1/Local Extension Settings/ghbmnnjooekpmoecnnnilnnbdlolhkhi/000003.log</text>
</g>
<!-- 14&#45;&gt;3 -->
<g id="edge14" class="edge">
<title>14&#45;&gt;3</title>
<path fill="none" stroke="black" d="M6401.12,-179.01C6355.43,-177.31 6308.97,-175.59 6264.92,-174 5841.39,-158.68 5735.55,-153.48 5311.92,-141 4800.57,-125.93 4186.94,-112.6 3961.02,-107.85"/>
<polygon fill="black" stroke="black" points="3961.17,-104.35 3951.1,-107.64 3961.02,-111.35 3961.17,-104.35"/>
<text text-anchor="middle" x="5808.92" y="-144.8" font-family="Times,serif" font-size="14.00">24345,25626</text>
</g>
<!-- 15 -->
<g id="node16" class="node">
<title>15</title>
<ellipse fill="none" stroke="black" cx="7462.92" cy="-192" rx="287.05" ry="18"/>
<text text-anchor="middle" x="7462.92" y="-188.3" font-family="Times,serif" font-size="14.00">/home/pavan/.config/google&#45;chrome/Profile 1/.com.google.Chrome.RXBFWi</text>
</g>
<!-- 15&#45;&gt;3 -->
<g id="edge15" class="edge">
<title>15&#45;&gt;3</title>
<path fill="none" stroke="black" d="M7263.94,-178.69C7231.52,-176.94 7198.29,-175.29 7166.92,-174 5894.92,-121.56 4344.95,-108.91 3961.08,-106.49"/>
<polygon fill="black" stroke="black" points="3961.33,-103 3951.31,-106.43 3961.29,-110 3961.33,-103"/>
<text text-anchor="middle" x="6663.92" y="-144.8" font-family="Times,serif" font-size="14.00">29915,29916</text>
</g>
</g>
</svg>
