<?xml version="1.0" encoding="UTF-8" standalone="no"?>
<!DOCTYPE svg PUBLIC "-//W3C//DTD SVG 1.1//EN"
 "http://www.w3.org/Graphics/SVG/1.1/DTD/svg11.dtd">
<!-- Generated by graphviz version 7.0.2 (20221119.0110)
 -->
<!-- Title: G Pages: 1 -->
<svg width="8151pt" height="392pt"
 viewBox="0.00 0.00 8151.00 392.00" xmlns="http://www.w3.org/2000/svg" xmlns:xlink="http://www.w3.org/1999/xlink">
<g id="graph0" class="graph" transform="scale(1 1) rotate(0) translate(4 388)">
<title>G</title>
<polygon fill="white" stroke="none" points="-4,4 -4,-388 8147,-388 8147,4 -4,4"/>
<!-- 0 -->
<g id="node1" class="node">
<title>0</title>
<polygon fill="none" stroke="black" points="3882.5,-123 3805.5,-123 3805.5,-87 3882.5,-87 3882.5,-123"/>
<text text-anchor="middle" x="3844" y="-101.3" font-family="Times,serif" font-size="14.00">110899 cat</text>
</g>
<!-- 1 -->
<g id="node2" class="node">
<title>1</title>
<ellipse fill="none" stroke="black" cx="3944" cy="-18" rx="124.28" ry="18"/>
<text text-anchor="middle" x="3944" y="-14.3" font-family="Times,serif" font-size="14.00">/home/pavan/Downloads/test.sh</text>
</g>
<!-- 0&#45;&gt;1 -->
<g id="edge1" class="edge">
<title>0&#45;&gt;1</title>
<path fill="none" stroke="black" d="M3848.89,-86.92C3852.66,-76.33 3858.8,-63.05 3868,-54 3873.36,-48.73 3879.65,-44.16 3886.29,-40.22"/>
<polygon fill="black" stroke="black" points="3887.7,-43.43 3894.85,-35.61 3884.39,-37.27 3887.7,-43.43"/>
<text text-anchor="middle" x="3904" y="-57.8" font-family="Times,serif" font-size="14.00">47288,47291</text>
</g>
<!-- 2 -->
<g id="node3" class="node">
<title>2</title>
<polygon fill="none" stroke="black" points="3987,-123 3901,-123 3901,-87 3987,-87 3987,-123"/>
<text text-anchor="middle" x="3944" y="-101.3" font-family="Times,serif" font-size="14.00">110907 bash</text>
</g>
<!-- 2&#45;&gt;1 -->
<g id="edge2" class="edge">
<title>2&#45;&gt;1</title>
<path fill="none" stroke="black" d="M3944,-86.8C3944,-75.58 3944,-60.67 3944,-47.69"/>
<polygon fill="black" stroke="black" points="3947.5,-47.98 3944,-37.98 3940.5,-47.98 3947.5,-47.98"/>
<text text-anchor="middle" x="3980" y="-57.8" font-family="Times,serif" font-size="14.00">53127,53136</text>
</g>
<!-- 3 -->
<g id="node4" class="node">
<title>3</title>
<polygon fill="none" stroke="black" points="4160.5,-123 4005.5,-123 4005.5,-87 4160.5,-87 4160.5,-123"/>
<text text-anchor="middle" x="4083" y="-101.3" font-family="Times,serif" font-size="14.00">104515 ThreadPoolForeg</text>
</g>
<!-- 3&#45;&gt;1 -->
<g id="edge3" class="edge">
<title>3&#45;&gt;1</title>
<path fill="none" stroke="black" d="M4063.75,-86.73C4051.71,-76.45 4035.58,-63.58 4020,-54 4012.08,-49.13 4003.37,-44.51 3994.77,-40.32"/>
<polygon fill="black" stroke="black" points="3996.28,-37.16 3985.75,-36.07 3993.3,-43.5 3996.28,-37.16"/>
<text text-anchor="middle" x="4077" y="-57.8" font-family="Times,serif" font-size="14.00">96748,96749</text>
</g>
<!-- 4 -->
<g id="node5" class="node">
<title>4</title>
<ellipse fill="none" stroke="black" cx="468" cy="-192" rx="313.84" ry="18"/>
<text text-anchor="middle" x="468" y="-188.3" font-family="Times,serif" font-size="14.00">/home/pavan/.config/google&#45;chrome/Profile 1/Sessions/Session_13314079061526100</text>
</g>
<!-- 4&#45;&gt;3 -->
<g id="edge4" class="edge">
<title>4&#45;&gt;3</title>
<path fill="none" stroke="black" d="M689.07,-178.86C723.2,-177.13 758.04,-175.45 791,-174 1203.3,-155.82 1306.39,-149.97 1719,-141 1968.61,-135.58 3697.8,-148.03 3994.21,-122.94"/>
<polygon fill="black" stroke="black" points="3994.18,-126.46 4003.81,-122.06 3993.53,-119.49 3994.18,-126.46"/>
<text text-anchor="middle" x="1751.5" y="-144.8" font-family="Times,serif" font-size="14.00">6677,97311</text>
</g>
<!-- 5 -->
<g id="node6" class="node">
<title>5</title>
<ellipse fill="none" stroke="black" cx="7932" cy="-366" rx="60.39" ry="18"/>
<text text-anchor="middle" x="7932" y="-362.3" font-family="Times,serif" font-size="14.00">pipe:[479876]</text>
</g>
<!-- 5&#45;&gt;3 -->
<g id="edge5" class="edge">
<title>5&#45;&gt;3</title>
<path fill="none" stroke="black" d="M7871.66,-363.59C7631.74,-357.22 6746.27,-326.12 6495,-210 6473.88,-200.24 6478.46,-182.98 6457,-174 6260.92,-91.92 5713.48,-147.29 5501,-141 4998.37,-126.12 4395.38,-112.71 4171.94,-107.89"/>
<polygon fill="black" stroke="black" points="4172.22,-104.4 4162.14,-107.68 4172.07,-111.4 4172.22,-104.4"/>
<text text-anchor="middle" x="6618.5" y="-231.8" font-family="Times,serif" font-size="14.00">6699,95153</text>
</g>
<!-- 21 -->
<g id="node22" class="node">
<title>21</title>
<polygon fill="none" stroke="black" points="8014,-297 7850,-297 7850,-261 8014,-261 8014,-297"/>
<text text-anchor="middle" x="7932" y="-275.3" font-family="Times,serif" font-size="14.00">104515 Chrome_IOThread</text>
</g>
<!-- 5&#45;&gt;21 -->
<g id="edge23" class="edge">
<title>5&#45;&gt;21</title>
<path fill="none" stroke="black" d="M7932,-347.8C7932,-336.58 7932,-321.67 7932,-308.69"/>
<polygon fill="black" stroke="black" points="7935.5,-308.98 7932,-298.98 7928.5,-308.98 7935.5,-308.98"/>
<text text-anchor="middle" x="7961" y="-318.8" font-family="Times,serif" font-size="14.00">26,103543</text>
</g>
<!-- 6 -->
<g id="node7" class="node">
<title>6</title>
<ellipse fill="none" stroke="black" cx="6941" cy="-192" rx="436.52" ry="18"/>
<text text-anchor="middle" x="6941" y="-188.3" font-family="Times,serif" font-size="14.00">/home/pavan/.config/google&#45;chrome/Profile 1/Local Extension Settings/kbfnbcaeplbcioakkpcpgfkobkghlhen/000003.log</text>
</g>
<!-- 6&#45;&gt;3 -->
<g id="edge6" class="edge">
<title>6&#45;&gt;3</title>
<path fill="none" stroke="black" d="M6818.77,-174.24C6728.2,-162.6 6601.65,-147.98 6490,-141 6026.08,-111.98 4551.02,-106.97 4172.31,-106.15"/>
<polygon fill="black" stroke="black" points="4172.41,-102.65 4162.4,-106.13 4172.4,-109.65 4172.41,-102.65"/>
<text text-anchor="middle" x="6683.5" y="-144.8" font-family="Times,serif" font-size="14.00">7173,95151</text>
</g>
<!-- 7 -->
<g id="node8" class="node">
<title>7</title>
<ellipse fill="none" stroke="black" cx="7669" cy="-192" rx="272.95" ry="18"/>
<text text-anchor="middle" x="7669" y="-188.3" font-family="Times,serif" font-size="14.00">/home/pavan/.config/google&#45;chrome/Profile 1/Extension State/000004.log</text>
</g>
<!-- 7&#45;&gt;3 -->
<g id="edge7" class="edge">
<title>7&#45;&gt;3</title>
<path fill="none" stroke="black" d="M7480.04,-178.67C7288.59,-166.74 6983.85,-149.28 6720,-141 5720.28,-109.65 4506.52,-106.32 4172.01,-106.01"/>
<polygon fill="black" stroke="black" points="4172.47,-102.51 4162.46,-106.01 4172.46,-109.51 4172.47,-102.51"/>
<text text-anchor="middle" x="7095" y="-144.8" font-family="Times,serif" font-size="14.00">11229,53266</text>
</g>
<!-- 8 -->
<g id="node9" class="node">
<title>8</title>
<ellipse fill="none" stroke="black" cx="76" cy="-192" rx="60.39" ry="18"/>
<text text-anchor="middle" x="76" y="-188.3" font-family="Times,serif" font-size="14.00">pipe:[475741]</text>
</g>
<!-- 8&#45;&gt;3 -->
<g id="edge8" class="edge">
<title>8&#45;&gt;3</title>
<path fill="none" stroke="black" d="M118.8,-178.99C127.41,-176.99 136.45,-175.18 145,-174 580.21,-113.79 693.73,-149.72 1133,-141 1289.15,-137.9 3746.53,-138.79 3993.93,-122.82"/>
<polygon fill="black" stroke="black" points="3994.12,-126.32 4003.81,-122.04 3993.57,-119.34 3994.12,-126.32"/>
<text text-anchor="middle" x="1169" y="-144.8" font-family="Times,serif" font-size="14.00">13851,61372</text>
</g>
<!-- 9 -->
<g id="node10" class="node">
<title>9</title>
<ellipse fill="none" stroke="black" cx="8020" cy="-192" rx="60.39" ry="18"/>
<text text-anchor="middle" x="8020" y="-188.3" font-family="Times,serif" font-size="14.00">pipe:[476935]</text>
</g>
<!-- 9&#45;&gt;3 -->
<g id="edge9" class="edge">
<title>9&#45;&gt;3</title>
<path fill="none" stroke="black" d="M7977.2,-179.04C7968.58,-177.03 7959.55,-175.21 7951,-174 7591.64,-122.99 7497.84,-150.42 7135,-141 5963.51,-110.6 4538.4,-106.6 4172.13,-106.08"/>
<polygon fill="black" stroke="black" points="4172.35,-102.58 4162.35,-106.07 4172.34,-109.58 4172.35,-102.58"/>
<text text-anchor="middle" x="7835.5" y="-144.8" font-family="Times,serif" font-size="14.00">13855,102787</text>
</g>
<!-- 19 -->
<g id="node20" class="node">
<title>19</title>
<polygon fill="none" stroke="black" points="8117,-123 8015,-123 8015,-87 8117,-87 8117,-123"/>
<text text-anchor="middle" x="8066" y="-101.3" font-family="Times,serif" font-size="14.00">104515 chrome</text>
</g>
<!-- 9&#45;&gt;19 -->
<g id="edge22" class="edge">
<title>9&#45;&gt;19</title>
<path fill="none" stroke="black" d="M8020.43,-173.92C8021.31,-163.82 8023.55,-151.09 8029,-141 8030.77,-137.73 8032.95,-134.6 8035.36,-131.63"/>
<polygon fill="black" stroke="black" points="8037.83,-134.13 8042.09,-124.43 8032.71,-129.35 8037.83,-134.13"/>
<text text-anchor="middle" x="8061.5" y="-144.8" font-family="Times,serif" font-size="14.00">910,103451</text>
</g>
<!-- 9&#45;&gt;21 -->
<g id="edge24" class="edge">
<title>9&#45;&gt;21</title>
<path fill="none" stroke="black" d="M7976.11,-204.73C7955.79,-211.14 7934.85,-219.49 7929,-228 7924.68,-234.28 7923.68,-242.13 7924.22,-249.72"/>
<polygon fill="black" stroke="black" points="7920.72,-250.02 7925.76,-259.34 7927.63,-248.91 7920.72,-250.02"/>
<text text-anchor="middle" x="7961.5" y="-231.8" font-family="Times,serif" font-size="14.00">266,103523</text>
</g>
<!-- 10 -->
<g id="node11" class="node">
<title>10</title>
<ellipse fill="none" stroke="black" cx="1077" cy="-192" rx="276.75" ry="18"/>
<text text-anchor="middle" x="1077" y="-188.3" font-family="Times,serif" font-size="14.00">/home/pavan/.config/google&#45;chrome/Profile 1/shared_proto_db/000003.log</text>
</g>
<!-- 10&#45;&gt;3 -->
<g id="edge10" class="edge">
<title>10&#45;&gt;3</title>
<path fill="none" stroke="black" d="M1270.81,-178.8C1301.64,-177.06 1333.19,-175.39 1363,-174 1798.78,-153.72 1907.86,-150.71 2344,-141 2524.21,-136.99 3767.28,-141.51 3993.86,-122.95"/>
<polygon fill="black" stroke="black" points="3994.17,-126.44 4003.81,-122.04 3993.53,-119.47 3994.17,-126.44"/>
<text text-anchor="middle" x="2380" y="-144.8" font-family="Times,serif" font-size="14.00">15441,33087</text>
</g>
<!-- 11 -->
<g id="node12" class="node">
<title>11</title>
<ellipse fill="none" stroke="black" cx="1679" cy="-192" rx="307.35" ry="18"/>
<text text-anchor="middle" x="1679" y="-188.3" font-family="Times,serif" font-size="14.00">/home/pavan/.config/google&#45;chrome/Profile 1/Service Worker/Database/000003.log</text>
</g>
<!-- 11&#45;&gt;3 -->
<g id="edge11" class="edge">
<title>11&#45;&gt;3</title>
<path fill="none" stroke="black" d="M1895.28,-178.86C1928.67,-177.13 1962.76,-175.45 1995,-174 2399.3,-155.8 2500.43,-151.67 2905,-141 3143.84,-134.7 3737.13,-147.95 3994.08,-123.02"/>
<polygon fill="black" stroke="black" points="3994.21,-126.53 4003.81,-122.04 3993.51,-119.56 3994.21,-126.53"/>
<text text-anchor="middle" x="2941" y="-144.8" font-family="Times,serif" font-size="14.00">20974,20977</text>
</g>
<!-- 12 -->
<g id="node13" class="node">
<title>12</title>
<ellipse fill="none" stroke="black" cx="2289" cy="-192" rx="284.85" ry="18"/>
<text text-anchor="middle" x="2289" y="-188.3" font-family="Times,serif" font-size="14.00">/home/pavan/.config/google&#45;chrome/Profile 1/.com.google.Chrome.MZ2h0k</text>
</g>
<!-- 12&#45;&gt;3 -->
<g id="edge12" class="edge">
<title>12&#45;&gt;3</title>
<path fill="none" stroke="black" d="M2490.22,-178.93C2521.29,-177.19 2553,-175.49 2583,-174 2936.65,-156.45 3025.14,-153.5 3379,-141 3649.55,-131.45 3721.47,-152.83 3994.27,-123.06"/>
<polygon fill="black" stroke="black" points="3994.25,-126.58 4003.8,-122 3993.48,-119.62 3994.25,-126.58"/>
<text text-anchor="middle" x="3415" y="-144.8" font-family="Times,serif" font-size="14.00">30040,30041</text>
</g>
<!-- 13 -->
<g id="node14" class="node">
<title>13</title>
<ellipse fill="none" stroke="black" cx="2851" cy="-192" rx="259.15" ry="18"/>
<text text-anchor="middle" x="2851" y="-188.3" font-family="Times,serif" font-size="14.00">/home/pavan/.config/google&#45;chrome/Profile 1/GCM Store/000003.log</text>
</g>
<!-- 13&#45;&gt;3 -->
<g id="edge13" class="edge">
<title>13&#45;&gt;3</title>
<path fill="none" stroke="black" d="M3036.61,-179.1C3064.23,-177.37 3092.36,-175.62 3119,-174 3130.49,-173.3 3889.99,-129.89 3993.96,-122.62"/>
<polygon fill="black" stroke="black" points="3994.1,-126.12 4003.79,-121.84 3993.54,-119.15 3994.1,-126.12"/>
<text text-anchor="middle" x="3722" y="-144.8" font-family="Times,serif" font-size="14.00">34432,34437</text>
</g>
<!-- 14 -->
<g id="node15" class="node">
<title>14</title>
<ellipse fill="none" stroke="black" cx="3452" cy="-192" rx="323.84" ry="18"/>
<text text-anchor="middle" x="3452" y="-188.3" font-family="Times,serif" font-size="14.00">/home/pavan/.config/google&#45;chrome/Profile 1/Sync Data/.com.google.Chrome.eubQCV</text>
</g>
<!-- 14&#45;&gt;3 -->
<g id="edge14" class="edge">
<title>14&#45;&gt;3</title>
<path fill="none" stroke="black" d="M3598.14,-175.49C3705.09,-163.48 3853.94,-145.43 3994.31,-123.21"/>
<polygon fill="black" stroke="black" points="3994.44,-126.73 4003.76,-121.7 3993.34,-119.82 3994.44,-126.73"/>
<text text-anchor="middle" x="3899" y="-144.8" font-family="Times,serif" font-size="14.00">34840,34841</text>
</g>
<!-- 15 -->
<g id="node16" class="node">
<title>15</title>
<ellipse fill="none" stroke="black" cx="4083" cy="-192" rx="289.45" ry="18"/>
<text text-anchor="middle" x="4083" y="-188.3" font-family="Times,serif" font-size="14.00">/home/pavan/.config/google&#45;chrome/Profile 1/Sync Data/LevelDB/000025.log</text>
</g>
<!-- 15&#45;&gt;3 -->
<g id="edge15" class="edge">
<title>15&#45;&gt;3</title>
<path fill="none" stroke="black" d="M4083,-173.8C4083,-162.58 4083,-147.67 4083,-134.69"/>
<polygon fill="black" stroke="black" points="4086.5,-134.98 4083,-124.98 4079.5,-134.98 4086.5,-134.98"/>
<text text-anchor="middle" x="4119" y="-144.8" font-family="Times,serif" font-size="14.00">34848,53274</text>
</g>
<!-- 16 -->
<g id="node17" class="node">
<title>16</title>
<ellipse fill="none" stroke="black" cx="4672" cy="-192" rx="282.15" ry="18"/>
<text text-anchor="middle" x="4672" y="-188.3" font-family="Times,serif" font-size="14.00">/home/pavan/.config/google&#45;chrome/Profile 1/.com.google.Chrome.XhA1j7</text>
</g>
<!-- 16&#45;&gt;3 -->
<g id="edge16" class="edge">
<title>16&#45;&gt;3</title>
<path fill="none" stroke="black" d="M4561.21,-175.01C4448.52,-158.75 4276.07,-133.86 4171.96,-118.84"/>
<polygon fill="black" stroke="black" points="4172.76,-115.42 4162.36,-117.45 4171.76,-122.34 4172.76,-115.42"/>
<text text-anchor="middle" x="4449" y="-144.8" font-family="Times,serif" font-size="14.00">36594,36595</text>
</g>
<!-- 17 -->
<g id="node18" class="node">
<title>17</title>
<ellipse fill="none" stroke="black" cx="5414" cy="-192" rx="441.92" ry="18"/>
<text text-anchor="middle" x="5414" y="-188.3" font-family="Times,serif" font-size="14.00">/home/pavan/.config/google&#45;chrome/Profile 1/Local Extension Settings/ghbmnnjooekpmoecnnnilnnbdlolhkhi/000003.log</text>
</g>
<!-- 17&#45;&gt;3 -->
<g id="edge17" class="edge">
<title>17&#45;&gt;3</title>
<path fill="none" stroke="black" d="M5182.92,-176.24C4883.73,-157.14 4376.51,-124.74 4172.2,-111.7"/>
<polygon fill="black" stroke="black" points="4172.66,-108.22 4162.46,-111.07 4172.21,-115.2 4172.66,-108.22"/>
<text text-anchor="middle" x="4865" y="-144.8" font-family="Times,serif" font-size="14.00">54421,56764</text>
</g>
<!-- 18 -->
<g id="node19" class="node">
<title>18</title>
<ellipse fill="none" stroke="black" cx="6161" cy="-192" rx="287.05" ry="18"/>
<text text-anchor="middle" x="6161" y="-188.3" font-family="Times,serif" font-size="14.00">/home/pavan/.config/google&#45;chrome/Profile 1/.com.google.Chrome.RXBFWi</text>
</g>
<!-- 18&#45;&gt;3 -->
<g id="edge18" class="edge">
<title>18&#45;&gt;3</title>
<path fill="none" stroke="black" d="M5958.81,-178.87C5927.41,-177.13 5895.33,-175.45 5865,-174 5215.57,-142.96 4432.46,-117.09 4172.02,-108.79"/>
<polygon fill="black" stroke="black" points="4172.37,-105.3 4162.26,-108.48 4172.15,-112.3 4172.37,-105.3"/>
<text text-anchor="middle" x="5461" y="-144.8" font-family="Times,serif" font-size="14.00">63322,63323</text>
</g>
<!-- 19&#45;&gt;5 -->
<g id="edge19" class="edge">
<title>19&#45;&gt;5</title>
<path fill="none" stroke="black" d="M8083.71,-123.45C8087.9,-128.66 8091.78,-134.69 8094,-141 8109.21,-184.37 8101.23,-203.95 8077,-243 8048.83,-288.41 8036.17,-297.17 7994,-330 7987.36,-335.17 7979.87,-340.06 7972.45,-344.46"/>
<polygon fill="black" stroke="black" points="7970.74,-341.41 7963.78,-349.39 7974.2,-347.49 7970.74,-341.41"/>
<text text-anchor="middle" x="8114" y="-231.8" font-family="Times,serif" font-size="14.00">28,103545</text>
</g>
<!-- 20 -->
<g id="node21" class="node">
<title>20</title>
<polygon fill="none" stroke="black" points="152,-297 0,-297 0,-261 152,-261 152,-297"/>
<text text-anchor="middle" x="76" y="-275.3" font-family="Times,serif" font-size="14.00">104515 ThreadPoolServi</text>
</g>
<!-- 20&#45;&gt;8 -->
<g id="edge20" class="edge">
<title>20&#45;&gt;8</title>
<path fill="none" stroke="black" d="M76,-260.8C76,-249.58 76,-234.67 76,-221.69"/>
<polygon fill="black" stroke="black" points="79.5,-221.98 76,-211.98 72.5,-221.98 79.5,-221.98"/>
<text text-anchor="middle" x="112" y="-231.8" font-family="Times,serif" font-size="14.00">13857,90743</text>
</g>
<!-- 21&#45;&gt;9 -->
<g id="edge21" class="edge">
<title>21&#45;&gt;9</title>
<path fill="none" stroke="black" d="M7975.08,-260.55C7983.42,-255.76 7991.55,-249.93 7998,-243 8003.79,-236.77 8008.23,-228.76 8011.54,-220.99"/>
<polygon fill="black" stroke="black" points="8014.76,-222.38 8014.98,-211.79 8008.2,-219.93 8014.76,-222.38"/>
<text text-anchor="middle" x="8040.5" y="-231.8" font-family="Times,serif" font-size="14.00">270,103527</text>
</g>
<!-- 22 -->
<g id="node23" class="node">
<title>22</title>
<ellipse fill="none" stroke="black" cx="6389" cy="-366" rx="51.19" ry="18"/>
<text text-anchor="middle" x="6389" y="-362.3" font-family="Times,serif" font-size="14.00">10.0.2.15:0</text>
</g>
<!-- 22&#45;&gt;21 -->
<g id="edge25" class="edge">
<title>22&#45;&gt;21</title>
<path fill="none" stroke="black" d="M6439.46,-362.22C6660.62,-350.04 7546.25,-301.25 7838.16,-285.17"/>
<polygon fill="black" stroke="black" points="7838.23,-288.67 7848.02,-284.63 7837.85,-281.68 7838.23,-288.67"/>
<text text-anchor="middle" x="7288" y="-318.8" font-family="Times,serif" font-size="14.00">46628,46629</text>
</g>
</g>
</svg>
