<?xml version="1.0" encoding="UTF-8" standalone="no"?>
<!DOCTYPE svg PUBLIC "-//W3C//DTD SVG 1.1//EN"
 "http://www.w3.org/Graphics/SVG/1.1/DTD/svg11.dtd">
<!-- Generated by graphviz version 7.0.2 (20221119.0110)
 -->
<!-- Title: G Pages: 1 -->
<svg width="961pt" height="305pt"
 viewBox="0.00 0.00 960.67 305.00" xmlns="http://www.w3.org/2000/svg" xmlns:xlink="http://www.w3.org/1999/xlink">
<g id="graph0" class="graph" transform="scale(1 1) rotate(0) translate(4 301)">
<title>G</title>
<polygon fill="white" stroke="none" points="-4,4 -4,-301 956.67,-301 956.67,4 -4,4"/>
<!-- 0 -->
<g id="node1" class="node">
<title>0</title>
<polygon fill="none" stroke="black" points="287.79,-123 224.79,-123 224.79,-87 287.79,-87 287.79,-123"/>
<text text-anchor="middle" x="256.29" y="-101.3" font-family="Times,serif" font-size="14.00">4761 cat</text>
</g>
<!-- 1 -->
<g id="node2" class="node">
<title>1</title>
<ellipse fill="none" stroke="black" cx="157.29" cy="-18" rx="157.07" ry="18"/>
<text text-anchor="middle" x="157.29" y="-14.3" font-family="Times,serif" font-size="14.00">/home/pavan/Downloads/dir1/dir2/test.sh</text>
</g>
<!-- 0&#45;&gt;1 -->
<g id="edge1" class="edge">
<title>0&#45;&gt;1</title>
<path fill="none" stroke="black" d="M236.25,-86.8C221.76,-74.36 201.97,-57.36 185.83,-43.5"/>
<polygon fill="black" stroke="black" points="188.31,-41.02 178.44,-37.16 183.75,-46.33 188.31,-41.02"/>
<text text-anchor="middle" x="269.29" y="-57.8" font-family="Times,serif" font-size="14.00">read 108117,108122</text>
</g>
<!-- 2 -->
<g id="node3" class="node">
<title>2</title>
<polygon fill="none" stroke="black" points="210.29,-297 138.29,-297 138.29,-261 210.29,-261 210.29,-297"/>
<text text-anchor="middle" x="174.29" y="-275.3" font-family="Times,serif" font-size="14.00">4762 bash</text>
</g>
<!-- 2&#45;&gt;1 -->
<g id="edge2" class="edge">
<title>2&#45;&gt;1</title>
<path fill="none" stroke="black" d="M138.02,-260.84C101.37,-241.26 46.89,-205.42 23.29,-156 -0.03,-107.19 60.31,-65.13 107.45,-40.92"/>
<polygon fill="black" stroke="black" points="108.83,-44.15 116.23,-36.56 105.71,-37.88 108.83,-44.15"/>
<text text-anchor="middle" x="79.29" y="-144.8" font-family="Times,serif" font-size="14.00">read 117910,117923</text>
</g>
<!-- 2&#45;&gt;1 -->
<g id="edge3" class="edge">
<title>2&#45;&gt;1</title>
<path fill="none" stroke="black" d="M172.01,-260.66C169.01,-237.04 163.82,-193.4 161.29,-156 158.75,-118.57 157.82,-75.28 157.48,-47.54"/>
<polygon fill="black" stroke="black" points="160.98,-47.8 157.38,-37.84 153.98,-47.87 160.98,-47.8"/>
<text text-anchor="middle" x="218.29" y="-144.8" font-family="Times,serif" font-size="14.00">fcntl 117914,117917</text>
</g>
<!-- 3 -->
<g id="node4" class="node">
<title>3</title>
<ellipse fill="none" stroke="black" cx="434.29" cy="-192" rx="45.49" ry="18"/>
<text text-anchor="middle" x="434.29" y="-188.3" font-family="Times,serif" font-size="14.00">/dev/pts/0</text>
</g>
<!-- 2&#45;&gt;3 -->
<g id="edge9" class="edge">
<title>2&#45;&gt;3</title>
<path fill="none" stroke="black" d="M174.18,-260.69C175.08,-249.73 178.18,-236.12 187.29,-228 214.57,-203.65 313.33,-196.2 377.4,-193.94"/>
<polygon fill="black" stroke="black" points="377.14,-197.45 387.03,-193.64 376.92,-190.46 377.14,-197.45"/>
<text text-anchor="middle" x="244.29" y="-231.8" font-family="Times,serif" font-size="14.00">fcntl 117912,117913</text>
</g>
<!-- 3&#45;&gt;0 -->
<g id="edge4" class="edge">
<title>3&#45;&gt;0</title>
<path fill="none" stroke="black" d="M389.98,-187.32C361.1,-183.2 323.64,-174.48 295.29,-156 286.17,-150.06 278.28,-141.26 272.03,-132.69"/>
<polygon fill="black" stroke="black" points="275.03,-130.87 266.54,-124.53 269.22,-134.78 275.03,-130.87"/>
<text text-anchor="middle" x="353.79" y="-144.8" font-family="Times,serif" font-size="14.00">write 108119,108120</text>
</g>
<!-- 3&#45;&gt;2 -->
<g id="edge5" class="edge">
<title>3&#45;&gt;2</title>
<path fill="none" stroke="black" d="M397.07,-202.72C376.31,-208.77 350.29,-217.41 328.29,-228 317.29,-233.29 316.43,-238.03 305.29,-243 278.72,-254.85 247.27,-263.41 221.85,-269.1"/>
<polygon fill="black" stroke="black" points="221.16,-265.67 212.12,-271.2 222.63,-272.52 221.16,-265.67"/>
<text text-anchor="middle" x="386.79" y="-231.8" font-family="Times,serif" font-size="14.00">write 117920,117921</text>
</g>
<!-- 4 -->
<g id="node5" class="node">
<title>4</title>
<polygon fill="none" stroke="black" points="657.29,-123 585.29,-123 585.29,-87 657.29,-87 657.29,-123"/>
<text text-anchor="middle" x="621.29" y="-101.3" font-family="Times,serif" font-size="14.00">4709 bash</text>
</g>
<!-- 3&#45;&gt;4 -->
<g id="edge10" class="edge">
<title>3&#45;&gt;4</title>
<path fill="none" stroke="black" d="M427.81,-173.86C425,-163.23 423.83,-149.96 431.29,-141 449.06,-119.66 523.34,-111.28 573.59,-108.03"/>
<polygon fill="black" stroke="black" points="573.57,-111.53 583.35,-107.45 573.15,-104.55 573.57,-111.53"/>
<text text-anchor="middle" x="482.79" y="-144.8" font-family="Times,serif" font-size="14.00">write 1508,117941</text>
</g>
<!-- 4&#45;&gt;3 -->
<g id="edge6" class="edge">
<title>4&#45;&gt;3</title>
<path fill="none" stroke="black" d="M590.9,-123.33C581.36,-128.88 570.83,-135.11 561.29,-141 550.9,-147.41 549.27,-150.68 538.29,-156 520.54,-164.6 500.14,-171.97 482.14,-177.69"/>
<polygon fill="black" stroke="black" points="481.25,-174.3 472.73,-180.6 483.31,-180.99 481.25,-174.3"/>
<text text-anchor="middle" x="610.79" y="-144.8" font-family="Times,serif" font-size="14.00">read 4766,117788</text>
</g>
<!-- 4&#45;&gt;3 -->
<g id="edge7" class="edge">
<title>4&#45;&gt;3</title>
<path fill="none" stroke="black" d="M648.23,-123.44C660.01,-133.19 669.31,-145.47 660.29,-156 638.93,-180.92 550.88,-188.25 491.2,-190.32"/>
<polygon fill="black" stroke="black" points="491.44,-186.81 481.55,-190.61 491.66,-193.81 491.44,-186.81"/>
<text text-anchor="middle" x="716.79" y="-144.8" font-family="Times,serif" font-size="14.00">fcntl 12234,117937</text>
</g>
<!-- 5 -->
<g id="node6" class="node">
<title>5</title>
<polygon fill="none" stroke="black" points="503.29,-297 431.29,-297 431.29,-261 503.29,-261 503.29,-297"/>
<text text-anchor="middle" x="467.29" y="-275.3" font-family="Times,serif" font-size="14.00">4755 bash</text>
</g>
<!-- 5&#45;&gt;3 -->
<g id="edge8" class="edge">
<title>5&#45;&gt;3</title>
<path fill="none" stroke="black" d="M460.61,-260.8C456.14,-249.28 450.15,-233.86 445.01,-220.63"/>
<polygon fill="black" stroke="black" points="448.38,-219.64 441.5,-211.59 441.86,-222.18 448.38,-219.64"/>
<text text-anchor="middle" x="503.29" y="-231.8" font-family="Times,serif" font-size="14.00">fcntl 71900,71901</text>
</g>
<!-- 6 -->
<g id="node7" class="node">
<title>6</title>
<ellipse fill="none" stroke="black" cx="812.29" cy="-192" rx="140.28" ry="18"/>
<text text-anchor="middle" x="812.29" y="-188.3" font-family="Times,serif" font-size="14.00">/home/pavan/Downloads/dir1/test.sh</text>
</g>
<!-- 6&#45;&gt;4 -->
<g id="edge11" class="edge">
<title>6&#45;&gt;4</title>
<path fill="none" stroke="black" d="M803.28,-173.64C796.69,-162.65 786.75,-149.04 774.29,-141 742.78,-120.68 700.94,-112.09 668.98,-108.49"/>
<polygon fill="black" stroke="black" points="669.49,-105.03 659.19,-107.53 668.8,-111.99 669.49,-105.03"/>
<text text-anchor="middle" x="841.79" y="-144.8" font-family="Times,serif" font-size="14.00">write 52273,52274</text>
</g>
</g>
</svg>
