<?xml version="1.0" encoding="UTF-8" standalone="no"?>
<!DOCTYPE svg PUBLIC "-//W3C//DTD SVG 1.1//EN"
 "http://www.w3.org/Graphics/SVG/1.1/DTD/svg11.dtd">
<!-- Generated by graphviz version 7.0.2 (20221119.0110)
 -->
<!-- Title: G Pages: 1 -->
<svg width="363pt" height="218pt"
 viewBox="0.00 0.00 363.00 218.00" xmlns="http://www.w3.org/2000/svg" xmlns:xlink="http://www.w3.org/1999/xlink">
<g id="graph0" class="graph" transform="scale(1 1) rotate(0) translate(4 214)">
<title>G</title>
<polygon fill="white" stroke="none" points="-4,4 -4,-214 359,-214 359,4 -4,4"/>
<!-- 0 -->
<g id="node1" class="node">
<title>0</title>
<polygon fill="none" stroke="black" points="129.5,-36 43.5,-36 43.5,0 129.5,0 129.5,-36"/>
<text text-anchor="middle" x="86.5" y="-14.3" font-family="Times,serif" font-size="14.00">110870 bash</text>
</g>
<!-- 1 -->
<g id="node2" class="node">
<title>1</title>
<polygon fill="none" stroke="black" points="77,-210 0,-210 0,-174 77,-174 77,-210"/>
<text text-anchor="middle" x="38.5" y="-188.3" font-family="Times,serif" font-size="14.00">110899 cat</text>
</g>
<!-- 5 -->
<g id="node6" class="node">
<title>5</title>
<ellipse fill="none" stroke="black" cx="138.5" cy="-105" rx="124.28" ry="18"/>
<text text-anchor="middle" x="138.5" y="-101.3" font-family="Times,serif" font-size="14.00">/home/pavan/Downloads/test.sh</text>
</g>
<!-- 1&#45;&gt;5 -->
<g id="edge2" class="edge">
<title>1&#45;&gt;5</title>
<path fill="none" stroke="black" d="M58.74,-173.8C73.38,-161.36 93.37,-144.36 109.67,-130.5"/>
<polygon fill="black" stroke="black" points="111.79,-133.3 117.14,-124.16 107.25,-127.97 111.79,-133.3"/>
<text text-anchor="middle" x="103.5" y="-144.8" font-family="Times,serif" font-size="14.00">2,5</text>
</g>
<!-- 2 -->
<g id="node3" class="node">
<title>2</title>
<polygon fill="none" stroke="black" points="181.5,-210 95.5,-210 95.5,-174 181.5,-174 181.5,-210"/>
<text text-anchor="middle" x="138.5" y="-188.3" font-family="Times,serif" font-size="14.00">110907 bash</text>
</g>
<!-- 2&#45;&gt;5 -->
<g id="edge3" class="edge">
<title>2&#45;&gt;5</title>
<path fill="none" stroke="black" d="M138.5,-173.8C138.5,-162.58 138.5,-147.67 138.5,-134.69"/>
<polygon fill="black" stroke="black" points="142,-134.98 138.5,-124.98 135,-134.98 142,-134.98"/>
<text text-anchor="middle" x="151" y="-144.8" font-family="Times,serif" font-size="14.00">6,15</text>
</g>
<!-- 3 -->
<g id="node4" class="node">
<title>3</title>
<polygon fill="none" stroke="black" points="233.5,-36 147.5,-36 147.5,0 233.5,0 233.5,-36"/>
<text text-anchor="middle" x="190.5" y="-14.3" font-family="Times,serif" font-size="14.00">110938 bash</text>
</g>
<!-- 4 -->
<g id="node5" class="node">
<title>4</title>
<polygon fill="none" stroke="black" points="355,-210 200,-210 200,-174 355,-174 355,-210"/>
<text text-anchor="middle" x="277.5" y="-188.3" font-family="Times,serif" font-size="14.00">104515 ThreadPoolForeg</text>
</g>
<!-- 4&#45;&gt;5 -->
<g id="edge5" class="edge">
<title>4&#45;&gt;5</title>
<path fill="none" stroke="black" d="M249.04,-173.59C227.86,-160.65 198.78,-142.86 175.76,-128.78"/>
<polygon fill="black" stroke="black" points="177.63,-125.82 167.27,-123.59 173.98,-131.8 177.63,-125.82"/>
<text text-anchor="middle" x="231" y="-144.8" font-family="Times,serif" font-size="14.00">18,19</text>
</g>
<!-- 5&#45;&gt;0 -->
<g id="edge1" class="edge">
<title>5&#45;&gt;0</title>
<path fill="none" stroke="black" d="M127.98,-86.8C120.84,-75.12 111.24,-59.45 103.08,-46.11"/>
<polygon fill="black" stroke="black" points="106.18,-44.46 97.98,-37.76 100.21,-48.12 106.18,-44.46"/>
<text text-anchor="middle" x="125.5" y="-57.8" font-family="Times,serif" font-size="14.00">0,1</text>
</g>
<!-- 5&#45;&gt;3 -->
<g id="edge4" class="edge">
<title>5&#45;&gt;3</title>
<path fill="none" stroke="black" d="M149.02,-86.8C156.16,-75.12 165.76,-59.45 173.92,-46.11"/>
<polygon fill="black" stroke="black" points="176.79,-48.12 179.02,-37.76 170.82,-44.46 176.79,-48.12"/>
<text text-anchor="middle" x="184" y="-57.8" font-family="Times,serif" font-size="14.00">16,17</text>
</g>
</g>
</svg>
