<?xml version="1.0" encoding="UTF-8" standalone="no"?>
<!DOCTYPE svg PUBLIC "-//W3C//DTD SVG 1.1//EN"
 "http://www.w3.org/Graphics/SVG/1.1/DTD/svg11.dtd">
<!-- Generated by graphviz version 7.0.2 (20221119.0110)
 -->
<!-- Title: G Pages: 1 -->
<svg width="4766pt" height="566pt"
 viewBox="0.00 0.00 4765.79 566.00" xmlns="http://www.w3.org/2000/svg" xmlns:xlink="http://www.w3.org/1999/xlink">
<g id="graph0" class="graph" transform="scale(1 1) rotate(0) translate(4 562)">
<title>G</title>
<polygon fill="white" stroke="none" points="-4,4 -4,-562 4761.79,-562 4761.79,4 -4,4"/>
<!-- 0 -->
<g id="node1" class="node">
<title>0</title>
<polygon fill="none" stroke="black" points="2822.26,-471 2681.26,-471 2681.26,-435 2822.26,-435 2822.26,-471"/>
<text text-anchor="middle" x="2751.76" y="-449.3" font-family="Times,serif" font-size="14.00">3700 ThreadPoolForeg</text>
</g>
<!-- 1 -->
<g id="node2" class="node">
<title>1</title>
<ellipse fill="none" stroke="black" cx="1459.76" cy="-366" rx="63.89" ry="18"/>
<text text-anchor="middle" x="1459.76" y="-362.3" font-family="Times,serif" font-size="14.00">/proc/2832/stat</text>
</g>
<!-- 0&#45;&gt;1 -->
<g id="edge1" class="edge">
<title>0&#45;&gt;1</title>
<path fill="none" stroke="black" d="M2680.87,-452.61C2492.7,-453.24 1965.4,-448.6 1532.76,-384 1527.49,-383.21 1522.03,-382.24 1516.59,-381.17"/>
<polygon fill="black" stroke="black" points="1517.48,-377.78 1506.98,-379.15 1516.04,-384.63 1517.48,-377.78"/>
<text text-anchor="middle" x="1854.76" y="-405.8" font-family="Times,serif" font-size="14.00">read 156920,156923</text>
</g>
<!-- 14 -->
<g id="node15" class="node">
<title>14</title>
<ellipse fill="none" stroke="black" cx="1650.76" cy="-366" rx="109.38" ry="18"/>
<text text-anchor="middle" x="1650.76" y="-362.3" font-family="Times,serif" font-size="14.00">/opt/google/chrome/chrome</text>
</g>
<!-- 0&#45;&gt;14 -->
<g id="edge32" class="edge">
<title>0&#45;&gt;14</title>
<path fill="none" stroke="black" d="M2680.79,-446.52C2493.35,-432.05 1984.08,-392.73 1759.57,-375.4"/>
<polygon fill="black" stroke="black" points="1759.87,-371.91 1749.63,-374.63 1759.33,-378.89 1759.87,-371.91"/>
<text text-anchor="middle" x="2329.76" y="-405.8" font-family="Times,serif" font-size="14.00">sendmsg 19737,24154</text>
</g>
<!-- 2 -->
<g id="node3" class="node">
<title>2</title>
<ellipse fill="none" stroke="black" cx="2595.76" cy="-192" rx="55.79" ry="18"/>
<text text-anchor="middle" x="2595.76" y="-188.3" font-family="Times,serif" font-size="14.00">pipe:[28358]</text>
</g>
<!-- 2&#45;&gt;0 -->
<g id="edge2" class="edge">
<title>2&#45;&gt;0</title>
<path fill="none" stroke="black" d="M2647.85,-198.67C2758.86,-211.93 3012.74,-248.98 3063.76,-315 3129.07,-399.52 2947.07,-432.96 2834.11,-445.34"/>
<polygon fill="black" stroke="black" points="2833.81,-441.85 2824.24,-446.38 2834.55,-448.81 2833.81,-441.85"/>
<text text-anchor="middle" x="3124.26" y="-318.8" font-family="Times,serif" font-size="14.00">write 7316,157908</text>
</g>
<!-- 13 -->
<g id="node14" class="node">
<title>13</title>
<polygon fill="none" stroke="black" points="1216.26,-123 1065.26,-123 1065.26,-87 1216.26,-87 1216.26,-123"/>
<text text-anchor="middle" x="1140.76" y="-101.3" font-family="Times,serif" font-size="14.00">3700 Chrome_IOThread</text>
</g>
<!-- 2&#45;&gt;13 -->
<g id="edge18" class="edge">
<title>2&#45;&gt;13</title>
<path fill="none" stroke="black" d="M2541.38,-187.82C2321.67,-174.99 1498.39,-126.89 1227.66,-111.08"/>
<polygon fill="black" stroke="black" points="1228.03,-107.59 1217.85,-110.5 1227.63,-114.58 1228.03,-107.59"/>
<text text-anchor="middle" x="2004.26" y="-144.8" font-family="Times,serif" font-size="14.00">write 473,162684</text>
</g>
<!-- 3 -->
<g id="node4" class="node">
<title>3</title>
<ellipse fill="none" stroke="black" cx="436.76" cy="-540" rx="436.52" ry="18"/>
<text text-anchor="middle" x="436.76" y="-536.3" font-family="Times,serif" font-size="14.00">/home/pavan/.config/google&#45;chrome/Profile 1/Local Extension Settings/kbfnbcaeplbcioakkpcpgfkobkghlhen/000003.log</text>
</g>
<!-- 3&#45;&gt;0 -->
<g id="edge3" class="edge">
<title>3&#45;&gt;0</title>
<path fill="none" stroke="black" d="M736.99,-526.57C992.67,-516.11 1369.8,-500.98 1698.76,-489 2060.52,-475.82 2492.26,-462.1 2669.58,-456.55"/>
<polygon fill="black" stroke="black" points="2669.49,-460.06 2679.37,-456.25 2669.27,-453.06 2669.49,-460.06"/>
<text text-anchor="middle" x="1750.26" y="-492.8" font-family="Times,serif" font-size="14.00">write 7370,108166</text>
</g>
<!-- 4 -->
<g id="node5" class="node">
<title>4</title>
<ellipse fill="none" stroke="black" cx="1164.76" cy="-540" rx="272.95" ry="18"/>
<text text-anchor="middle" x="1164.76" y="-536.3" font-family="Times,serif" font-size="14.00">/home/pavan/.config/google&#45;chrome/Profile 1/Extension State/000007.log</text>
</g>
<!-- 4&#45;&gt;0 -->
<g id="edge4" class="edge">
<title>4&#45;&gt;0</title>
<path fill="none" stroke="black" d="M1359.68,-527.04C1388.87,-525.31 1418.6,-523.58 1446.76,-522 1909.17,-496.02 2463.94,-468.23 2669.73,-458.04"/>
<polygon fill="black" stroke="black" points="2669.69,-461.55 2679.51,-457.56 2669.35,-454.56 2669.69,-461.55"/>
<text text-anchor="middle" x="2106.26" y="-492.8" font-family="Times,serif" font-size="14.00">write 12347,70378</text>
</g>
<!-- 5 -->
<g id="node6" class="node">
<title>5</title>
<ellipse fill="none" stroke="black" cx="1744.76" cy="-540" rx="289.45" ry="18"/>
<text text-anchor="middle" x="1744.76" y="-536.3" font-family="Times,serif" font-size="14.00">/home/pavan/.config/google&#45;chrome/Profile 1/Sync Data/LevelDB/000029.log</text>
</g>
<!-- 5&#45;&gt;0 -->
<g id="edge5" class="edge">
<title>5&#45;&gt;0</title>
<path fill="none" stroke="black" d="M1911.89,-524.89C2130.51,-506.44 2505.06,-474.82 2669.86,-460.91"/>
<polygon fill="black" stroke="black" points="2669.7,-464.44 2679.37,-460.11 2669.11,-457.46 2669.7,-464.44"/>
<text text-anchor="middle" x="2360.26" y="-492.8" font-family="Times,serif" font-size="14.00">write 12412,12439</text>
</g>
<!-- 6 -->
<g id="node7" class="node">
<title>6</title>
<ellipse fill="none" stroke="black" cx="2456.76" cy="-18" rx="55.79" ry="18"/>
<text text-anchor="middle" x="2456.76" y="-14.3" font-family="Times,serif" font-size="14.00">pipe:[29899]</text>
</g>
<!-- 6&#45;&gt;0 -->
<g id="edge6" class="edge">
<title>6&#45;&gt;0</title>
<path fill="none" stroke="black" d="M2512.86,-19.23C2691.7,-20.69 3236.76,-31.12 3236.76,-104 3236.76,-367 3236.76,-367 3236.76,-367 3236.76,-407.4 2972.24,-434.49 2833.9,-445.89"/>
<polygon fill="black" stroke="black" points="2833.74,-442.39 2824.05,-446.69 2834.3,-449.37 2833.74,-442.39"/>
<text text-anchor="middle" x="3291.76" y="-231.8" font-family="Times,serif" font-size="14.00">write 15998,135730</text>
</g>
<!-- 12 -->
<g id="node13" class="node">
<title>12</title>
<polygon fill="none" stroke="black" points="2747.26,-297 2658.26,-297 2658.26,-261 2747.26,-261 2747.26,-297"/>
<text text-anchor="middle" x="2702.76" y="-275.3" font-family="Times,serif" font-size="14.00">3700 chrome</text>
</g>
<!-- 6&#45;&gt;12 -->
<g id="edge15" class="edge">
<title>6&#45;&gt;12</title>
<path fill="none" stroke="black" d="M2483.59,-34.03C2525.73,-58.71 2608.06,-111.39 2660.76,-174 2679.34,-196.07 2690.48,-227.44 2696.57,-249.94"/>
<polygon fill="black" stroke="black" points="2693.1,-250.49 2698.94,-259.34 2699.89,-248.78 2693.1,-250.49"/>
<text text-anchor="middle" x="2695.26" y="-144.8" font-family="Times,serif" font-size="14.00">write 7322,161944</text>
</g>
<!-- 6&#45;&gt;13 -->
<g id="edge19" class="edge">
<title>6&#45;&gt;13</title>
<path fill="none" stroke="black" d="M2402.21,-22.33C2301.92,-28.48 2081.52,-42.05 1895.76,-54 1653.73,-69.56 1368.11,-88.68 1227.66,-98.14"/>
<polygon fill="black" stroke="black" points="1227.83,-94.62 1218.08,-98.78 1228.3,-101.6 1227.83,-94.62"/>
<text text-anchor="middle" x="1947.26" y="-57.8" font-family="Times,serif" font-size="14.00">write 7262,162096</text>
</g>
<!-- 7 -->
<g id="node8" class="node">
<title>7</title>
<ellipse fill="none" stroke="black" cx="2493.76" cy="-540" rx="441.92" ry="18"/>
<text text-anchor="middle" x="2493.76" y="-536.3" font-family="Times,serif" font-size="14.00">/home/pavan/.config/google&#45;chrome/Profile 1/Local Extension Settings/ghbmnnjooekpmoecnnnilnnbdlolhkhi/000003.log</text>
</g>
<!-- 7&#45;&gt;0 -->
<g id="edge7" class="edge">
<title>7&#45;&gt;0</title>
<path fill="none" stroke="black" d="M2546.28,-521.7C2587.3,-508.18 2644.47,-489.35 2688.09,-474.98"/>
<polygon fill="black" stroke="black" points="2689.03,-478.35 2697.43,-471.9 2686.84,-471.7 2689.03,-478.35"/>
<text text-anchor="middle" x="2690.26" y="-492.8" font-family="Times,serif" font-size="14.00">write 16588,22760</text>
</g>
<!-- 8 -->
<g id="node9" class="node">
<title>8</title>
<ellipse fill="none" stroke="black" cx="3009.76" cy="-540" rx="55.79" ry="18"/>
<text text-anchor="middle" x="3009.76" y="-536.3" font-family="Times,serif" font-size="14.00">pipe:[30960]</text>
</g>
<!-- 8&#45;&gt;0 -->
<g id="edge8" class="edge">
<title>8&#45;&gt;0</title>
<path fill="none" stroke="black" d="M2971.69,-526.46C2930.64,-512.93 2864.6,-491.18 2815.59,-475.03"/>
<polygon fill="black" stroke="black" points="2816.8,-471.74 2806.21,-471.94 2814.61,-478.39 2816.8,-471.74"/>
<text text-anchor="middle" x="2948.26" y="-492.8" font-family="Times,serif" font-size="14.00">write 28275,28276</text>
</g>
<!-- 9 -->
<g id="node10" class="node">
<title>9</title>
<ellipse fill="none" stroke="black" cx="3336.76" cy="-540" rx="252.66" ry="18"/>
<text text-anchor="middle" x="3336.76" y="-536.3" font-family="Times,serif" font-size="14.00">/home/pavan/.config/google&#45;chrome/.com.google.Chrome.XHEKey</text>
</g>
<!-- 9&#45;&gt;0 -->
<g id="edge9" class="edge">
<title>9&#45;&gt;0</title>
<path fill="none" stroke="black" d="M3233.31,-523.17C3167.59,-513.18 3080.71,-500.12 3003.76,-489 2947.08,-480.81 2883.18,-471.94 2833.9,-465.18"/>
<polygon fill="black" stroke="black" points="2834.55,-461.73 2824.17,-463.84 2833.6,-468.67 2834.55,-461.73"/>
<text text-anchor="middle" x="3156.26" y="-492.8" font-family="Times,serif" font-size="14.00">write 43592,43605</text>
</g>
<!-- 10 -->
<g id="node11" class="node">
<title>10</title>
<ellipse fill="none" stroke="black" cx="3889.76" cy="-540" rx="282.15" ry="18"/>
<text text-anchor="middle" x="3889.76" y="-536.3" font-family="Times,serif" font-size="14.00">/home/pavan/.config/google&#45;chrome/Profile 1/.com.google.Chrome.PVJK0I</text>
</g>
<!-- 10&#45;&gt;0 -->
<g id="edge10" class="edge">
<title>10&#45;&gt;0</title>
<path fill="none" stroke="black" d="M3711.32,-525.67C3461.31,-507 3016.9,-473.8 2833.94,-460.14"/>
<polygon fill="black" stroke="black" points="2834.28,-456.65 2824.05,-459.4 2833.76,-463.63 2834.28,-456.65"/>
<text text-anchor="middle" x="3441.26" y="-492.8" font-family="Times,serif" font-size="14.00">write 54814,54815</text>
</g>
<!-- 11 -->
<g id="node12" class="node">
<title>11</title>
<ellipse fill="none" stroke="black" cx="4473.76" cy="-540" rx="284.05" ry="18"/>
<text text-anchor="middle" x="4473.76" y="-536.3" font-family="Times,serif" font-size="14.00">/home/pavan/.config/google&#45;chrome/Profile 1/.com.google.Chrome.o1kOhU</text>
</g>
<!-- 11&#45;&gt;0 -->
<g id="edge11" class="edge">
<title>11&#45;&gt;0</title>
<path fill="none" stroke="black" d="M4271.63,-527.01C4241.18,-525.28 4210.15,-523.56 4180.76,-522 3668.46,-494.78 3052.57,-467.22 2833.76,-457.58"/>
<polygon fill="black" stroke="black" points="2834.06,-454.09 2823.91,-457.15 2833.75,-461.09 2834.06,-454.09"/>
<text text-anchor="middle" x="3886.26" y="-492.8" font-family="Times,serif" font-size="14.00">write 105181,105182</text>
</g>
<!-- 12&#45;&gt;2 -->
<g id="edge12" class="edge">
<title>12&#45;&gt;2</title>
<path fill="none" stroke="black" d="M2657.85,-274.95C2635.74,-270.93 2610.86,-262.1 2596.76,-243 2592.29,-236.95 2590.74,-229.27 2590.63,-221.75"/>
<polygon fill="black" stroke="black" points="2594.12,-222.07 2591.34,-211.85 2587.13,-221.57 2594.12,-222.07"/>
<text text-anchor="middle" x="2642.76" y="-231.8" font-family="Times,serif" font-size="14.00">read 477,162686</text>
</g>
<!-- 12&#45;&gt;14 -->
<g id="edge20" class="edge">
<title>12&#45;&gt;14</title>
<path fill="none" stroke="black" d="M2747.45,-285.38C2788.18,-291.96 2838.64,-305.4 2814.76,-330 2796.76,-348.55 2064.33,-359.8 1770.7,-363.58"/>
<polygon fill="black" stroke="black" points="1771.06,-360.07 1761.1,-363.7 1771.15,-367.07 1771.06,-360.07"/>
<text text-anchor="middle" x="2871.76" y="-318.8" font-family="Times,serif" font-size="14.00">fcntl 12631,17363</text>
</g>
<!-- 12&#45;&gt;14 -->
<g id="edge27" class="edge">
<title>12&#45;&gt;14</title>
<path fill="none" stroke="black" d="M2747.42,-280.43C2805.8,-282.04 2903.28,-288.72 2925.76,-315 2930.09,-320.07 2930.41,-325.22 2925.76,-330 2905.8,-350.52 2085.43,-360.73 1771.36,-363.9"/>
<polygon fill="black" stroke="black" points="1771.43,-360.39 1761.46,-363.99 1771.5,-367.39 1771.43,-360.39"/>
<text text-anchor="middle" x="2994.76" y="-318.8" font-family="Times,serif" font-size="14.00">sendmsg 13791,161942</text>
</g>
<!-- 13&#45;&gt;6 -->
<g id="edge13" class="edge">
<title>13&#45;&gt;6</title>
<path fill="none" stroke="black" d="M1216.68,-102.68C1366.94,-99.68 1712.83,-90.83 2002.76,-69 2143.14,-58.43 2307.15,-38.48 2394.51,-27.24"/>
<polygon fill="black" stroke="black" points="2394.83,-30.72 2404.3,-25.97 2393.94,-23.78 2394.83,-30.72"/>
<text text-anchor="middle" x="2215.26" y="-57.8" font-family="Times,serif" font-size="14.00">read 7266,162100</text>
</g>
<!-- 13&#45;&gt;14 -->
<g id="edge22" class="edge">
<title>13&#45;&gt;14</title>
<path fill="none" stroke="black" d="M1064.81,-109.96C1025.49,-114.24 977.52,-123.03 937.76,-141 881.59,-166.38 856.37,-172.4 829.76,-228 810.03,-269.22 808.53,-299.72 842.76,-330 871.48,-355.41 1494.55,-344.76 1532.76,-348 1542.76,-348.85 1553.2,-349.98 1563.56,-351.27"/>
<polygon fill="black" stroke="black" points="1562.87,-354.71 1573.24,-352.52 1563.77,-347.77 1562.87,-354.71"/>
<text text-anchor="middle" x="879.76" y="-231.8" font-family="Times,serif" font-size="14.00">fcntl 12917,22600</text>
</g>
<!-- 13&#45;&gt;14 -->
<g id="edge23" class="edge">
<title>13&#45;&gt;14</title>
<path fill="none" stroke="black" d="M1111.86,-123.45C1039.02,-168.4 856.57,-287.62 897.76,-330 922.36,-355.31 1497.6,-344.98 1532.76,-348 1542.68,-348.85 1553.04,-349.98 1563.32,-351.26"/>
<polygon fill="black" stroke="black" points="1562.55,-354.69 1572.92,-352.5 1563.45,-347.75 1562.55,-354.69"/>
<text text-anchor="middle" x="1026.76" y="-231.8" font-family="Times,serif" font-size="14.00">sendmsg 12921,161885</text>
</g>
<!-- 14&#45;&gt;12 -->
<g id="edge14" class="edge">
<title>14&#45;&gt;12</title>
<path fill="none" stroke="black" d="M1759.44,-363.5C1956.98,-360.28 2367.51,-351.21 2508.76,-330 2534.67,-326.11 2540.4,-321.58 2565.76,-315 2592.45,-308.08 2622.08,-300.5 2646.95,-294.16"/>
<polygon fill="black" stroke="black" points="2647.71,-297.58 2656.54,-291.72 2645.99,-290.8 2647.71,-297.58"/>
<text text-anchor="middle" x="2623.26" y="-318.8" font-family="Times,serif" font-size="14.00">recvmsg 475,162694</text>
</g>
<!-- 14&#45;&gt;12 -->
<g id="edge16" class="edge">
<title>14&#45;&gt;12</title>
<path fill="none" stroke="black" d="M1760.09,-364.39C2017.53,-362.55 2643.17,-355.45 2680.76,-330 2688.3,-324.9 2693.27,-316.6 2696.55,-308.21"/>
<polygon fill="black" stroke="black" points="2699.84,-309.43 2699.5,-298.84 2693.16,-307.33 2699.84,-309.43"/>
<text text-anchor="middle" x="2752.26" y="-318.8" font-family="Times,serif" font-size="14.00">writev 44578,137046</text>
</g>
<!-- 14&#45;&gt;13 -->
<g id="edge17" class="edge">
<title>14&#45;&gt;13</title>
<path fill="none" stroke="black" d="M1574.74,-352.7C1560.81,-350.83 1546.37,-349.15 1532.76,-348 1453.24,-341.3 890.5,-355.13 814.76,-330 751.21,-308.92 722.54,-302.47 691.76,-243 656.52,-174.91 630.28,-210.71 814.76,-141 857.04,-125.03 972.28,-115.4 1053.72,-110.4"/>
<polygon fill="black" stroke="black" points="1053.69,-113.91 1063.46,-109.81 1053.27,-106.92 1053.69,-113.91"/>
<text text-anchor="middle" x="749.26" y="-231.8" font-family="Times,serif" font-size="14.00">recvmsg 471,162682</text>
</g>
<!-- 15 -->
<g id="node16" class="node">
<title>15</title>
<polygon fill="none" stroke="black" points="1039.26,-297 950.26,-297 950.26,-261 1039.26,-261 1039.26,-297"/>
<text text-anchor="middle" x="994.76" y="-275.3" font-family="Times,serif" font-size="14.00">3722 chrome</text>
</g>
<!-- 14&#45;&gt;15 -->
<g id="edge35" class="edge">
<title>14&#45;&gt;15</title>
<path fill="none" stroke="black" d="M1574.42,-352.7C1560.59,-350.84 1546.27,-349.16 1532.76,-348 1498.1,-345.01 931.01,-354.95 906.76,-330 891.1,-313.88 913.05,-301.39 938.93,-292.93"/>
<polygon fill="black" stroke="black" points="939.76,-296.33 948.32,-290.09 937.74,-289.63 939.76,-296.33"/>
<text text-anchor="middle" x="958.26" y="-318.8" font-family="Times,serif" font-size="14.00">write 12866,17418</text>
</g>
<!-- 16 -->
<g id="node17" class="node">
<title>16</title>
<polygon fill="none" stroke="black" points="1511.26,-297 1422.26,-297 1422.26,-261 1511.26,-261 1511.26,-297"/>
<text text-anchor="middle" x="1466.76" y="-275.3" font-family="Times,serif" font-size="14.00">5764 chrome</text>
</g>
<!-- 14&#45;&gt;16 -->
<g id="edge36" class="edge">
<title>14&#45;&gt;16</title>
<path fill="none" stroke="black" d="M1573.77,-352.8C1560.14,-350.96 1546.05,-349.26 1532.76,-348 1510.78,-345.92 1151.02,-345.96 1135.76,-330 1096.86,-289.3 1306.41,-281.57 1410.64,-280.21"/>
<polygon fill="black" stroke="black" points="1410.43,-283.71 1420.39,-280.1 1410.35,-276.71 1410.43,-283.71"/>
<text text-anchor="middle" x="1187.26" y="-318.8" font-family="Times,serif" font-size="14.00">write 13483,71532</text>
</g>
<!-- 14&#45;&gt;16 -->
<g id="edge37" class="edge">
<title>14&#45;&gt;16</title>
<path fill="none" stroke="black" d="M1573.11,-353C1559.67,-351.15 1545.83,-349.4 1532.76,-348 1504.52,-344.97 1297.13,-350.78 1277.76,-330 1273.22,-325.12 1273.5,-320.13 1277.76,-315 1294.44,-294.95 1361.22,-286.33 1410.7,-282.67"/>
<polygon fill="black" stroke="black" points="1410.67,-286.18 1420.41,-282 1410.19,-279.19 1410.67,-286.18"/>
<text text-anchor="middle" x="1338.76" y="-318.8" font-family="Times,serif" font-size="14.00">recvmsg 13535,71534</text>
</g>
<!-- 17 -->
<g id="node18" class="node">
<title>17</title>
<polygon fill="none" stroke="black" points="2242.26,-297 2153.26,-297 2153.26,-261 2242.26,-261 2242.26,-297"/>
<text text-anchor="middle" x="2197.76" y="-275.3" font-family="Times,serif" font-size="14.00">5776 chrome</text>
</g>
<!-- 14&#45;&gt;17 -->
<g id="edge38" class="edge">
<title>14&#45;&gt;17</title>
<path fill="none" stroke="black" d="M1738.94,-354.99C1781,-349.28 1831.84,-341.04 1876.76,-330 1896.82,-325.07 1900.63,-319.65 1920.76,-315 1996.32,-297.54 2085.61,-288.23 2141.97,-283.71"/>
<polygon fill="black" stroke="black" points="2141.93,-287.22 2151.63,-282.96 2141.39,-280.24 2141.93,-287.22"/>
<text text-anchor="middle" x="1972.26" y="-318.8" font-family="Times,serif" font-size="14.00">write 17837,20120</text>
</g>
<!-- 14&#45;&gt;17 -->
<g id="edge39" class="edge">
<title>14&#45;&gt;17</title>
<path fill="none" stroke="black" d="M1757.28,-361.71C1850.1,-357.62 1976.97,-348.74 2023.76,-330 2033.75,-326 2033.05,-319.63 2042.76,-315 2073.78,-300.2 2111.32,-291.52 2141.68,-286.5"/>
<polygon fill="black" stroke="black" points="2142.1,-289.98 2151.44,-284.98 2141.03,-283.06 2142.1,-289.98"/>
<text text-anchor="middle" x="2107.26" y="-318.8" font-family="Times,serif" font-size="14.00">recvmsg 17891,157660</text>
</g>
<!-- 18 -->
<g id="node19" class="node">
<title>18</title>
<polygon fill="none" stroke="black" points="503.26,-297 352.26,-297 352.26,-261 503.26,-261 503.26,-297"/>
<text text-anchor="middle" x="427.76" y="-275.3" font-family="Times,serif" font-size="14.00">3750 Chrome_ChildIOT</text>
</g>
<!-- 14&#45;&gt;18 -->
<g id="edge40" class="edge">
<title>14&#45;&gt;18</title>
<path fill="none" stroke="black" d="M1575.07,-352.64C1561.04,-350.76 1546.48,-349.09 1532.76,-348 1500.25,-345.42 381.65,-353.24 358.76,-330 348.99,-320.08 355.74,-310.69 368.18,-302.79"/>
<polygon fill="black" stroke="black" points="369.7,-305.94 376.76,-298.04 366.31,-299.82 369.7,-305.94"/>
<text text-anchor="middle" x="416.26" y="-318.8" font-family="Times,serif" font-size="14.00">recvmsg 491,162696</text>
</g>
<!-- 15&#45;&gt;14 -->
<g id="edge21" class="edge">
<title>15&#45;&gt;14</title>
<path fill="none" stroke="black" d="M1001.45,-297.12C1006.93,-308.61 1015.9,-322.89 1028.76,-330 1077.81,-357.09 1476.95,-343 1532.76,-348 1542.68,-348.89 1553.03,-350.04 1563.31,-351.33"/>
<polygon fill="black" stroke="black" points="1562.54,-354.76 1572.91,-352.58 1563.45,-347.82 1562.54,-354.76"/>
<text text-anchor="middle" x="1078.26" y="-318.8" font-family="Times,serif" font-size="14.00">pipe 12753,17381</text>
</g>
<!-- 16&#45;&gt;14 -->
<g id="edge24" class="edge">
<title>16&#45;&gt;14</title>
<path fill="none" stroke="black" d="M1424.11,-297.39C1408.21,-306.35 1396.28,-317.91 1406.76,-330 1425.29,-351.37 1504.76,-343.98 1532.76,-348 1541.33,-349.23 1550.25,-350.51 1559.18,-351.8"/>
<polygon fill="black" stroke="black" points="1558.57,-355.24 1568.97,-353.2 1559.57,-348.32 1558.57,-355.24"/>
<text text-anchor="middle" x="1456.76" y="-318.8" font-family="Times,serif" font-size="14.00">fcntl 13455,13479</text>
</g>
<!-- 16&#45;&gt;14 -->
<g id="edge25" class="edge">
<title>16&#45;&gt;14</title>
<path fill="none" stroke="black" d="M1486.95,-297.43C1501.75,-309.93 1520.76,-325.36 1529.76,-330 1543.68,-337.18 1559.28,-343.08 1574.53,-347.86"/>
<polygon fill="black" stroke="black" points="1573.52,-351.21 1584.1,-350.71 1575.51,-344.5 1573.52,-351.21"/>
<text text-anchor="middle" x="1579.26" y="-318.8" font-family="Times,serif" font-size="14.00">pipe 13467,13480</text>
</g>
<!-- 16&#45;&gt;14 -->
<g id="edge26" class="edge">
<title>16&#45;&gt;14</title>
<path fill="none" stroke="black" d="M1511.67,-285.09C1553.2,-290.6 1611.1,-300.58 1628.76,-315 1635.63,-320.61 1640.42,-328.79 1643.73,-336.91"/>
<polygon fill="black" stroke="black" points="1640.37,-337.93 1646.89,-346.28 1647.01,-335.69 1640.37,-337.93"/>
<text text-anchor="middle" x="1690.26" y="-318.8" font-family="Times,serif" font-size="14.00">read 13485,71494</text>
</g>
<!-- 16&#45;&gt;14 -->
<g id="edge28" class="edge">
<title>16&#45;&gt;14</title>
<path fill="none" stroke="black" d="M1511.52,-282.46C1585.99,-287.02 1728.68,-297.89 1743.76,-315 1755.84,-328.7 1744.44,-339.3 1726,-347.15"/>
<polygon fill="black" stroke="black" points="1725.02,-343.78 1716.89,-350.58 1727.49,-350.33 1725.02,-343.78"/>
<text text-anchor="middle" x="1810.76" y="-318.8" font-family="Times,serif" font-size="14.00">sendmsg 15591,15592</text>
</g>
<!-- 17&#45;&gt;14 -->
<g id="edge29" class="edge">
<title>17&#45;&gt;14</title>
<path fill="none" stroke="black" d="M2194.88,-297.29C2192.03,-308.54 2186.48,-322.49 2175.76,-330 2143.43,-352.66 1915.37,-360.68 1770.66,-363.49"/>
<polygon fill="black" stroke="black" points="1770.97,-359.99 1761.04,-363.68 1771.1,-366.99 1770.97,-359.99"/>
<text text-anchor="middle" x="2238.76" y="-318.8" font-family="Times,serif" font-size="14.00">fcntl 17751,17797</text>
</g>
<!-- 17&#45;&gt;14 -->
<g id="edge30" class="edge">
<title>17&#45;&gt;14</title>
<path fill="none" stroke="black" d="M2242.69,-288.1C2275.82,-295.93 2312.05,-309.63 2292.76,-330 2275.1,-348.65 1950.99,-358.57 1770.2,-362.68"/>
<polygon fill="black" stroke="black" points="1770.2,-359.18 1760.28,-362.9 1770.36,-366.18 1770.2,-359.18"/>
<text text-anchor="middle" x="2348.26" y="-318.8" font-family="Times,serif" font-size="14.00">pipe 17763,17799</text>
</g>
<!-- 17&#45;&gt;14 -->
<g id="edge31" class="edge">
<title>17&#45;&gt;14</title>
<path fill="none" stroke="black" d="M2242.34,-281.18C2296.1,-283.65 2381.78,-291.3 2401.76,-315 2406.06,-320.1 2406.36,-325.18 2401.76,-330 2380.38,-352.4 1977.95,-360.82 1771.2,-363.68"/>
<polygon fill="black" stroke="black" points="1771.15,-360.18 1761.2,-363.82 1771.25,-367.18 1771.15,-360.18"/>
<text text-anchor="middle" x="2455.26" y="-318.8" font-family="Times,serif" font-size="14.00">read 17839,20122</text>
</g>
<!-- 18&#45;&gt;14 -->
<g id="edge33" class="edge">
<title>18&#45;&gt;14</title>
<path fill="none" stroke="black" d="M451.32,-297.33C470.58,-311.42 495.05,-329.1 497.76,-330 552.37,-348.03 1475.44,-343.39 1532.76,-348 1542.84,-348.81 1553.36,-349.93 1563.8,-351.21"/>
<polygon fill="black" stroke="black" points="1563.2,-354.66 1573.56,-352.47 1564.09,-347.72 1563.2,-354.66"/>
<text text-anchor="middle" x="551.26" y="-318.8" font-family="Times,serif" font-size="14.00">fcntl 21735,161382</text>
</g>
<!-- 18&#45;&gt;14 -->
<g id="edge34" class="edge">
<title>18&#45;&gt;14</title>
<path fill="none" stroke="black" d="M503.67,-288.49C535.68,-293.72 572.85,-302.01 604.76,-315 616.06,-319.6 616.1,-326.41 627.76,-330 723.88,-359.62 1432.52,-339.81 1532.76,-348 1542.76,-348.82 1553.2,-349.93 1563.56,-351.21"/>
<polygon fill="black" stroke="black" points="1562.88,-354.65 1573.24,-352.45 1563.77,-347.71 1562.88,-354.65"/>
<text text-anchor="middle" x="692.76" y="-318.8" font-family="Times,serif" font-size="14.00">sendmsg 21877,161892</text>
</g>
<!-- 19 -->
<g id="node20" class="node">
<title>19</title>
<ellipse fill="none" stroke="black" cx="428.76" cy="-192" rx="55.79" ry="18"/>
<text text-anchor="middle" x="428.76" y="-188.3" font-family="Times,serif" font-size="14.00">pipe:[28395]</text>
</g>
<!-- 18&#45;&gt;19 -->
<g id="edge43" class="edge">
<title>18&#45;&gt;19</title>
<path fill="none" stroke="black" d="M457.85,-260.83C463.87,-255.89 469.37,-249.93 472.76,-243 477.69,-232.92 472.57,-223.31 464.3,-215.24"/>
<polygon fill="black" stroke="black" points="466.72,-212.71 456.8,-209 462.24,-218.09 466.72,-212.71"/>
<text text-anchor="middle" x="527.76" y="-231.8" font-family="Times,serif" font-size="14.00">read 12760,161918</text>
</g>
<!-- 19&#45;&gt;18 -->
<g id="edge41" class="edge">
<title>19&#45;&gt;18</title>
<path fill="none" stroke="black" d="M389.78,-205.1C379.17,-210.38 368.91,-217.78 362.76,-228 356.64,-238.18 361.41,-247.04 370.63,-254.35"/>
<polygon fill="black" stroke="black" points="368.62,-257.22 378.9,-259.8 372.47,-251.37 368.62,-257.22"/>
<text text-anchor="middle" x="417.76" y="-231.8" font-family="Times,serif" font-size="14.00">write 12726,161860</text>
</g>
<!-- 20 -->
<g id="node21" class="node">
<title>20</title>
<ellipse fill="none" stroke="black" cx="232.76" cy="-366" rx="55.79" ry="18"/>
<text text-anchor="middle" x="232.76" y="-362.3" font-family="Times,serif" font-size="14.00">pipe:[29994]</text>
</g>
<!-- 20&#45;&gt;18 -->
<g id="edge42" class="edge">
<title>20&#45;&gt;18</title>
<path fill="none" stroke="black" d="M228.08,-347.79C226.29,-337.14 226.21,-323.85 233.76,-315 247.89,-298.44 295.88,-289.69 340.6,-285.09"/>
<polygon fill="black" stroke="black" points="340.75,-288.59 350.37,-284.15 340.08,-281.62 340.75,-288.59"/>
<text text-anchor="middle" x="285.26" y="-318.8" font-family="Times,serif" font-size="14.00">write 65271,65272</text>
</g>
</g>
</svg>
